# xmcd
# 
# Track frame offsets:
#     187
#     15307
#     28735
#     44310
#     61830
#     79900
#     94755
#     111922
#     131470
#     144145
#     159680
#     176832
#     197520
#     215577
# 
# Disc length: 3109
# 
# Revision: 1
# Processed by: cddbd v1.5.2PL0 Copyright (c) Steve Scherf et al.
# Submitted via: BonkEnc v1.0.6
# 
DISCID=b80c230e
DTITLE=THUNDERHEAD - Behind The Eight Ball
DYEAR=1990
DGENRE=Hard Rock
TTITLE0=Behind The Eight Ball
TTITLE1=Ready To Roll
TTITLE2=Take It To The Highway
TTITLE3=(You Don't Keep Me) Satisfied
TTITLE4=The Fire's Burning
TTITLE5=Let Go
TTITLE6=Open All Night
TTITLE7=Life In The City
TTITLE8=Just Another Lover
TTITLE9=Straight Shooter
TTITLE10=Take Me To The Limit
TTITLE11=Beyond The Universe
TTITLE12=Take It To The Highway (Remix)
TTITLE13=Alcohol (LIVE)
EXTD=YEAR: 1990
EXTT0=
EXTT1=
EXTT2=
EXTT3=
EXTT4=
EXTT5=
EXTT6=
EXTT7=
EXTT8=
EXTT9=
EXTT10=
EXTT11=
EXTT12=
EXTT13=
PLAYORDER=
